#!OML:ASF F:\VICON\USERDATA\INSTALL\rory3\rory3.ASF
:FULLY-SPECIFIED
:DEGREES
111
root 1.365086618896854 17.908845589142107 56.479434747436876 -3.650135746187199 0.6739273993617583 1.2019181022896606
lfemur -0.5915710295956789 -4.685113796026741 -26.08576919970551
ltibia 22.72926065908255
lfoot -7.972457972051411 -4.1767247508433805
ltoes -6.632921222573679
rfemur -20.498026542225794 -0.571810128817408 19.846424767228168
rtibia 54.52328798266595
rfoot -6.532120184184147 -4.380152785948432
rtoes 5.3431386894822275
lowerback -1.0 -0.9560509643315764 -1.3961982287174148
upperback -0.036506512534747515 -1.3389960463980901 0.8787880924285453
thorax -5.257832374198242 -0.6750244129401302 1.6585713102705757
lowerneck -16.43340755949517 -3.106573745146563 -1.363400670996246
upperneck 21.23653542125747 -4.049878353809041 1.3378539727425287
head 9.588026917310932 -1.926004134346408 0.23379587483545022
lclavicle 4.31947924594753e-16 -7.883818749199922e-16
lhumerus -28.72430747995378 2.3649874473579215 80.47535162838095
lradius 25.79619737140521
lwrist 7.007276297283273
lhand -28.374585991868308 19.62288615847995
lfingers nan
lthumb -1.9144516480948117 49.650837067864764
rclavicle 3.397441710390719e-16 -8.561490055858756e-16
rhumerus -28.37785642547733 -17.506784463555906 -79.79140148541254
rradius 32.423353036111145
rwrist 1.3695861914230738
rhand -17.989521364417474 -1.0
rfingers nan
rthumb 8.457066658433314 -8.209119262514047
112
root 1.3791237065881516 17.906751397184383 56.96000994441522 -3.5072603183092212 0.6038066245228997 1.2961826146789706
lfemur 1.5035765237309882 -4.9093238400600825 -26.303818837249526
ltibia 23.02794782612643
lfoot -7.533670684691615 -3.6320498011722697
ltoes -6.586458564708977
rfemur -22.25839092489818 -0.6293718827165811 19.910320935663798
rtibia 52.964407098240144
rfoot -7.409583265294796 -3.1841260548916748
rtoes 4.371993899362412
lowerback -1.0 -1.1613736272011785 -1.4839090640299353
upperback -0.05433873564930841 -1.6009112847808304 0.989862275099827
thorax -5.235663132304634 -0.8204325835784594 1.962549762796813
lowerneck -16.470711222956286 -3.037545842883382 -1.407256181252611
upperneck 21.346675567247882 -3.9242920681000566 1.2394505714453823
head 9.618626419597957 -1.878680773896093 0.23630871198238168
lclavicle 4.298133051405374e-16 -7.881412815783969e-16
lhumerus -28.280811478429143 1.9485767130234808 80.3777106273814
lradius 25.917238010815588
lwrist 6.953607992050425
lhand -28.357908206246876 19.785450806776574
lfingers nan
lthumb -1.8610598252750692 49.86103081429077
rclavicle 3.340536099498467e-16 -8.589925131644947e-16
rhumerus -28.654945522744203 -17.803834701599758 -79.82516574660404
rradius 32.41121627262962
rwrist 1.3323568004439181
rhand -17.974245183799454 -1.0
rfingers nan
rthumb 8.472674561362833 -8.185344317238018
113
root 1.38209039521928 17.902106468725144 57.04229819631287 -3.4102513624581503 0.35129096232175394 1.6091798402109394
lfemur 3.3766046362112405 -5.0329566292950405 -26.604142302349857
ltibia 23.59693805685056
lfoot -6.407062344927735 -4.045652297386632
ltoes -6.577794903763654
rfemur -23.69564006338269 -0.5792039928166068 19.665772697223975
rtibia 50.385824411942664
rfoot -7.9909857015323915 -2.484476973432242
rtoes 3.4936949328688356
lowerback -1.0 -1.3750246986931018 -1.827449459804238
upperback -0.0778007972696475 -1.936201046161926 1.0493334797246172
thorax -5.210135195100522 -0.9960031429693166 2.2444955361444134
lowerneck -16.49207690908778 -2.95984988319611 -1.4763199299075513
upperneck 21.512127230867506 -3.7843386580425857 1.1087497131591844
head 9.657964473533584 -1.8264079064378966 0.23409393611393364
lclavicle 4.274268345756538e-16 -7.885654577082784e-16
lhumerus -27.924540773202793 1.644299339166741 80.28740342815367
lradius 25.974180804288064
lwrist 6.861168493141833
lhand -28.311249447143354 19.90641552821628
lfingers nan
lthumb -1.8089654650301532 49.98698904348509
rclavicle 3.29806366873191e-16 -8.611098112519741e-16
rhumerus -29.07853049557066 -18.178031319827703 -79.82537079327994
rradius 32.43585470690999
rwrist 1.3255866459644987
rhand -17.991965577180498 -1.0
rfingers nan
rthumb 8.463717994252814 -8.217632370942594
114
root 1.4059560603211152 17.907976099915 57.695287533932465 -3.1968732777695665 0.10696170143857575 1.8888220917618177
lfemur 4.915461460705908 -5.08825649515816 -26.75692249554055
ltibia 24.435053847608977
lfoot -5.679394160170749 -4.274487735785935
ltoes -6.612837627601939
rfemur -23.863589135147755 -0.4247785224540994 19.923284152020297
rtibia 46.86465362260223
rfoot -8.496139019678225 -2.1347967212177377
rtoes 2.708473646465931
lowerback -1.0 -1.5325091584125403 -1.9628474570875447
upperback -0.08631876075075837 -2.1692040841411053 1.1156876691859692
thorax -5.145590846548058 -1.114020644578546 2.5298950889706684
lowerneck -16.494323623030503 -2.8870991990438353 -1.5633815909902182
upperneck 21.70106226629776 -3.6513052905881627 0.9607304119069594
head 9.701201027341536 -1.7771412554449517 0.22406817336588575
lclavicle 4.256586231384151e-16 -7.886807022764028e-16
lhumerus -27.56687525305754 1.5294763855083082 80.23024312325336
lradius 25.916292677103186
lwrist 6.797739152980051
lhand -28.23528836812221 20.04261677359901
lfingers nan
lthumb -1.7207231533013696 50.12276464190809
rclavicle 3.2603055131277893e-16 -8.629834136782363e-16
rhumerus -29.560843122425922 -18.580926911682926 -79.76292710518884
rradius 32.49263416916555
rwrist 1.3433619364780633
rhand -17.987880840481054 -1.0
rfingers nan
rthumb 8.46406534996958 -8.222221084544186
115
root 1.4217298640895089 17.910706312248017 57.67301718140044 -3.099794878042612 -0.3684131577750407 2.1781756112051287
lfemur 6.195254825748808 -5.010605087286476 -26.8799015135423
ltibia 25.540475994380863
lfoot -5.205289386441529 -4.5018659271286765
ltoes -6.973948360268418
rfemur -24.023285975982084 -0.25624985682306933 20.00879634273432
rtibia 43.0520673944876
rfoot -9.001397169765305 -2.185345823704586
rtoes 2.0209912600134805
lowerback -1.0 -1.6575066669992862 -2.2012993933088816
upperback -0.09262007148547977 -2.3986303828103317 1.1639188103085392
thorax -5.059150738569694 -1.228541461129667 2.7434481998034936
lowerneck -16.486219928397958 -2.824485119635378 -1.674013568186532
upperneck 21.878269422428932 -3.5352192171459116 0.8128320200064894
head 9.740825388099775 -1.7351038557613523 0.20809571629825385
lclavicle 4.22917449556753e-16 -7.895802684272152e-16
lhumerus -27.269268361310843 1.5473235068077678 80.21416514971988
lradius 25.736584481418575
lwrist 6.814094602250638
lhand -28.1742423324972 20.14496617215856
lfingers nan
lthumb -1.689715022843069 50.14351374562315
rclavicle 3.222994393387799e-16 -8.648872828103996e-16
rhumerus -29.94383764913433 -18.927085714395915 -79.57587621657795
rradius 32.581812009530374
rwrist 1.3875604394795178
rhand -18.011876883123808 -1.0
rfingers nan
rthumb 8.460629066309533 -8.234410195083548
